<svg width="360" height="572" viewBox="0 0 360 572" xmlns="http://www.w3.org/2000/svg" xmlns:xlink="http://www.w3.org/1999/xlink">
    <defs>
        <path d="M308 0c6.627 0 12 5.373 12 12v72c-5.523 0-10 4.477-10 10s4.477 10 10 10v296c-5.523 0-10 4.477-10 10s4.477 10 10 10v100c0 6.627-5.373 12-12 12H12c-6.627 0-12-5.373-12-12V420c5.523 0 10-4.477 10-10s-4.477-10-10-10V104c5.523 0 10-4.477 10-10S5.523 84 0 84V12C0 5.373 5.373 0 12 0h296z" id="0gtf6lhzba"/>
        <path id="0m1o7spfud" d="M0 0h13.658v16.346H0z"/>
        <path id="e5hv9thp4f" d="M0 0h7.367v7.188H0z"/>
        <filter x="-9.7%" y="-5.5%" width="119.4%" height="111.7%" filterUnits="objectBoundingBox" id="sdbc2ysfsb">
            <feOffset dy="2" in="SourceAlpha" result="shadowOffsetOuter1"/>
            <feGaussianBlur stdDeviation="10" in="shadowOffsetOuter1" result="shadowBlurOuter1"/>
            <feColorMatrix values="0 0 0 0 0 0 0 0 0 0 0 0 0 0 0 0 0 0 0.2 0" in="shadowBlurOuter1"/>
        </filter>
    </defs>
    <g transform="translate(20 18)" fill="none" fill-rule="evenodd">
        <mask id="859s2n2utc" fill="#fff">
            <use xlink:href="#0gtf6lhzba"/>
        </mask>
        <use fill="#000" filter="url(#sdbc2ysfsb)" xlink:href="#0gtf6lhzba"/>
        <use fill="#FFF" xlink:href="#0gtf6lhzba"/>
        <g opacity=".101" mask="url(#859s2n2utc)">
            <path d="m130.257 511.248 1.016-2.602 1.035 2.602h-2.051zm3.566 1.282-1.936-4.656h-1.472v.026c.447.134.269.517.14.845l-1.556 3.785c-.204.516-.364 1.024-.903 1.288v.028h1.713v-.028c-.445-.164-.38-.428-.186-.932l.374-.966h2.58l.379.966c.253.632.328.735-.132.932v.028h1.995v-.028c-.53-.264-.784-.772-.996-1.288zM108.795 513.173h-1.12v-2.23h1.12c.71 0 1.286.497 1.286 1.112 0 .62-.575 1.118-1.286 1.118zm-1.12-4.627h.865c.57 0 1.034.387 1.034.863 0 .475-.463.86-1.034.86h-.865v-1.723zm2.06 1.81c.5-.206.85-.66.85-1.18 0-.723-.561-1.302-1.561-1.302h-2.933v.026c.547.132.634.543.634.921v4.075c0 .38-.087.79-.634.923v.026h3.157c1.112 0 1.888-.8 1.888-1.786 0-.8-.59-1.474-1.402-1.703zM156.028 512.966l-1.92-2.177 2.594-2.906v-.01h-1.674v.026c.625.273.002.776-.306 1.205l-1.67 1.853 2.168 2.497c.19.218.514.39 1.053.39h.948v-.026c-.478-.227-.849-.48-1.193-.852" fill="#006855"/>
            <path d="M152.967 512.895v-4.074c0-.379.087-.79.638-.922v-.026h-2.22v.026c.547.132.637.543.637.922v4.074c0 .38-.09.79-.636.924v.026h2.22v-.026c-.552-.134-.639-.543-.639-.924M145.422 512.667c-.541.358-1.225.56-1.857.56-1.377 0-2.258-1.194-2.258-2.464 0-1.373.88-2.387 2.237-2.387.677 0 1.222.307 1.6.771V508.1a3.158 3.158 0 0 0-1.537-.376c-1.84-.047-3.288 1.397-3.288 3.12 0 1.861 1.462 3.15 3.201 3.15a3.91 3.91 0 0 0 1.541-.3l.379-1.007-.018-.02zM122.396 512.656c-.463.397-1.079.517-1.921.517h-1.246v-4.352c0-.379.085-.79.634-.921v-.027h-2.22v.027c.55.131.637.542.637.921v4.074c0 .381-.088.79-.636.924v.026h4.3l.479-1.189h-.027zM164.663 509.236c0-.63.747-.862 1.274-.862.524 0 1.101.206 1.464.573v-1.025a4.729 4.729 0 0 0-1.386-.202c-1.138 0-2.334.293-2.334 1.616 0 1.921 3.272 1.634 3.272 3.05 0 .635-.873.943-1.405.943-.725 0-1.489-.29-2.04-.751l.272 1.132c.53.194 1.097.273 1.666.273 1.452 0 2.493-.587 2.493-1.8 0-1.823-3.276-1.805-3.276-2.947M188.601 513.334c-1.379 0-2.262-1.306-2.262-2.58 0-1.368.883-2.385 2.244-2.385 1.385 0 2.215 1.28 2.215 2.604 0 1.355-.866 2.361-2.197 2.361m.045-5.619c-1.843-.047-3.289 1.397-3.289 3.123 0 1.86 1.462 3.15 3.198 3.15 1.747 0 3.23-1.344 3.23-3.197 0-1.632-1.3-3.086-3.14-3.076M174.652 508.881h.028c.29-.261.707-.36 1.11-.36h.854v4.368c0 .378-.083.787-.634.921v.028h2.222v-.028c-.55-.134-.636-.543-.636-.921v-4.368h.952c.306 0 .682.04.802.36h.03l.261-1.014h-4.722l-.267 1.014zM213.78 512.65c-.467.397-.943.516-1.783.516h-1.392v-2.238h1.718c.287 0 .678-.012.828.254h.03v-.964h-.03c-.108.052-.26.052-.407.052h-2.139v-1.717h1.62c.432 0 .814.002 1.1.328h.028v-1.014h-4.333v.026c.547.13.634.543.634.921v4.075c0 .378-.087.787-.634.921v.028h4.309l.48-1.188h-.028zM201.683 508.814c0-.377-.09-.792-.633-.921v-.027h1.942v.027c-.553.13-.638.544-.638.921V514c-.66-.217-.95-.514-1.357-1.033l-2.697-3.82v3.741c0 .379.089.79.636.922v.028h-1.942v-.028c.546-.132.635-.543.635-.922v-4.074c0-.377-.089-.792-.635-.921v-.027h1.577s.069.156.267.417l2.845 4.03v-3.499zM90.401 501.556h-3.07v-6.111h3.07c1.944 0 3.522 1.366 3.522 3.053 0 1.691-1.578 3.058-3.522 3.058zm-3.07-12.672h2.374c1.563 0 2.829 1.055 2.829 2.359 0 1.302-1.266 2.36-2.83 2.36h-2.373v-4.72zm5.642 4.96c1.375-.572 2.33-1.804 2.33-3.24 0-1.974-1.538-3.56-4.272-3.56H83v.074c1.496.358 1.735 1.486 1.735 2.52v11.159c0 1.034-.239 2.162-1.735 2.52v.074h8.645c3.045 0 5.163-2.187 5.163-4.89 0-2.184-1.611-4.033-3.835-4.656zM182.336 502.015c-3.771 0-6.187-3.576-6.187-7.059 0-3.75 2.416-6.533 6.138-6.533 3.793 0 6.063 3.502 6.063 7.13 0 3.704-2.37 6.462-6.014 6.462m.117-15.382c-5.04-.127-9 3.828-9 8.546 0 5.095 4.008 8.626 8.761 8.626 4.78 0 8.833-3.68 8.833-8.748 0-4.475-3.55-8.446-8.594-8.424" fill="#006855"/>
            <g transform="translate(223.242 487.045)">
                <mask id="rjggftyave" fill="#fff">
                    <use xlink:href="#0m1o7spfud"/>
                </mask>
                <path d="M0 2.784h.077c.79-.725 1.938-.994 3.033-.994h2.347v11.962c0 1.035-.237 2.162-1.735 2.523v.07h6.073v-.07c-1.499-.36-1.74-1.488-1.74-2.523V1.79h2.61c.843 0 1.864.122 2.192.994h.077L13.659 0H.727L0 2.784z" fill="#006855" mask="url(#rjggftyave)"/>
            </g>
            <path d="M110.019 500.137c-1.278 1.096-2.586 1.42-4.885 1.42h-3.81v-6.138h4.701c.796 0 1.865-.024 2.268.695h.08v-2.633h-.08c-.3.146-.71.146-1.118.146h-5.852v-4.706h4.439c1.177 0 2.221.012 3.01.909h.076v-2.786H96.986v.073c1.498.358 1.735 1.486 1.735 2.523v11.155c0 1.037-.237 2.163-1.735 2.524v.07h11.793l1.312-3.252h-.072zM222.288 500.137c-1.278 1.096-2.586 1.42-4.884 1.42h-3.812v-6.138h4.703c.793 0 1.865-.024 2.268.695h.08v-2.633h-.08c-.3.146-.711.146-1.116.146h-5.855v-4.706h4.44c1.176 0 2.22.012 3.01.909h.075v-2.786h-11.86v.073c1.494.358 1.735 1.486 1.735 2.523v11.155c0 1.037-.24 2.163-1.735 2.524v.07h11.792l1.314-3.252h-.075zM151.306 500.137c-1.28 1.096-2.585 1.42-4.884 1.42h-3.81v-6.138h4.701c.794 0 1.865-.024 2.268.695h.08v-2.633h-.08c-.3.146-.713.146-1.118.146h-5.852v-4.706h4.439c1.174 0 2.221.012 3.011.909h.075v-2.786h-11.862v.073c1.496.358 1.735 1.486 1.735 2.523v11.155c0 1.037-.239 2.163-1.735 2.524v.07h11.793l1.312-3.252h-.073zM124 500.137c-1.276 1.096-2.964 1.42-5.265 1.42h-3.412V489.64c0-1.037.241-2.165 1.737-2.523v-.073h-6.07v.073c1.494.358 1.735 1.486 1.735 2.523v11.155c0 1.037-.241 2.163-1.735 2.524v.07h11.773l1.312-3.252H124zM137.789 500.137c-1.276 1.096-2.965 1.42-5.263 1.42h-3.414V489.64c0-1.037.239-2.165 1.737-2.523v-.073h-6.073v.073c1.497.358 1.738 1.486 1.738 2.523v11.155c0 1.037-.241 2.163-1.738 2.524v.07h11.776l1.312-3.252h-.075zM160.058 487.044v.073c1.496.359 1.735 1.487 1.735 2.523v11.156c0 1.035-.239 2.163-1.735 2.523v.071H166.13v-.07c-1.49-.36-1.736-1.479-1.736-2.508v-5.392h4.703c.791 0 1.863-.027 2.266.694h.08v-2.632h-.08c-.298.146-.711.146-1.116.146h-5.853v-4.708h4.44c1.174 0 2.219.012 3.008.909h.075v-2.785h-11.86zM196.52 493.603v-4.72h2.371c1.565 0 2.83.77 2.83 2.359 0 1.304-1.265 2.361-2.83 2.361h-2.371zm8.203 7.381-4.876-5.54c.634-.002 4.645-.257 4.645-4.838 0-1.37-1.512-3.562-4.274-3.562h-8.03v.073c1.495.359 1.736 1.486 1.736 2.523v11.156c0 1.035-.241 2.163-1.736 2.523v.071h6.073v-.07c-1.498-.361-1.737-1.49-1.737-2.524v-5.352h.014l5.966 6.88c.514.59 1.405 1.066 2.881 1.066h2.59v-.07c-1.302-.625-2.322-1.317-3.252-2.336z" fill="#006855"/>
            <path d="M178.896 447.393s.895 2.657 1.56 2.665c.143.002.414-1.348 1.696-1.693.74-.2 1.187.612 1.462 1.142 2.645 5.071 4.6 17.245 5.14 21.311.542 4.07 1.405 9.642 5.398 8.514 3.994-1.126 3.076-7.074 1.89-10.765-1.187-3.692-5.3-14.503-8.149-18.418-2.396-3.29-5.111-6.698-8.997-2.756M156.942 455.345s2.794-3.779 4.56-1.29c.308.433.638 1.012.962 1.794 2.242 5.384 3.023 5.313 4.726 6.397 1.703 1.083 5.522-2.207 5.522-2.207l.464-3.394s-.055.749-1.085 1.612c-.829.692-2.165 1.034-3.317.085-1.375-1.134-3.58-3.876-4.97-5.525-.405-.481-.907-.882-1.13-1.111-1.028-1.037-4.167-.766-4.167-.766l-2.4 2.422.835 1.983zM133.676 449.36s.759-3.369 2.26-3.871c1.016-.342 2.373 1.251 2.893 3.493 1.363 5.883 2.303 13.902 2.635 16.34.152 1.108.37 2.363.617 3.426.199.855.43 1.582.535 2.013.063.261.54.529.54.529l4.464 3.377 2.262-5.71.216-1.27s-2.102 2.483-3.604-.761c-1.63-3.524-2.892-13.292-3.588-16.362-.912-4.028-3.117-8.416-6.3-8.682-3.186-.263-3.617 4.182-3.617 4.182l.687 3.297zM162.899 445.389c0-1.985-1.65-3.595-3.684-3.595-2.033 0-3.683 1.61-3.683 3.595 0 1.984 1.65 3.594 3.683 3.594s3.684-1.61 3.684-3.594" fill="#89C78C"/>
            <path d="M139.723 443.622s-2.231-2.299-4.64 2.254c-2.676 5.054-2.917 14.77-3.455 18.838-.541 4.068-1.404 9.64-5.397 8.513-3.993-1.126-4.03-7.58-2.294-12.518 1.425-4.062 4.191-10.915 6.344-14.333 1.79-2.843 4.113-5.115 7.144-4.356.826.207 1.525.816 2.298 1.602M141.92 468.003s.792 4.816 3.052 7.402c2.116 2.422 7.555 3.584 8.985-.737 1.393-4.216 1.569-9.611 2.15-13.108.537-3.218.737-6.968 2.572-8.657 2.681-2.47 5.121-.083 5.121-.083s-1.92-2.663-4.58-2.671c-2.633-.006-5.883 2.096-7.503 8.857-1.38 5.765-1.883 8.852-3.341 11.395-1.221 2.122-3.718 3.361-6.456-2.398M164.037 459.201s2.526 5.184 6.537 5.516c4.803.397 6.675-2.31 8.084-7.275.938-3.303 1.565-9.524 4.666-10.383 1.261-.352 1.85.152 2.63.64 0 0-3.285-4.337-7.766-.935-3.193 2.422-4.661 7.875-5.47 9.837-1.077 2.616-4.246 7.677-8.68 2.6" fill="#006855"/>
            <g transform="translate(133.148 433)">
                <mask id="7q81ef64sg" fill="#fff">
                    <use xlink:href="#e5hv9thp4f"/>
                </mask>
                <path d="M7.367 3.594c0-1.985-1.648-3.595-3.684-3.595C1.65 0 0 1.61 0 3.594c0 1.984 1.65 3.594 3.683 3.594 2.036 0 3.684-1.61 3.684-3.594" fill="#006855" mask="url(#7q81ef64sg)"/>
            </g>
            <path d="M184.634 440.188c0-1.987-1.65-3.595-3.684-3.595-2.035 0-3.683 1.608-3.683 3.595 0 1.982 1.648 3.594 3.683 3.594 2.033 0 3.684-1.612 3.684-3.594" fill="#006855"/>
        </g>
        <path d="M6 0h308a6 6 0 0 1 6 6v90H0V6a6 6 0 0 1 6-6z" fill="#00A9B7" mask="url(#859s2n2utc)"/>
        <path stroke="#EAEBEC" stroke-linecap="square" stroke-dasharray="4,6" mask="url(#859s2n2utc)" d="M20 410.5h280M20 96.5h280"/>
    </g>
</svg>
