<svg width="24" height="24" viewBox="0 0 24 24" xmlns="http://www.w3.org/2000/svg" xmlns:xlink="http://www.w3.org/1999/xlink">
    <defs>
        <path id="wdr0ghv87a" d="M0 0h20v9H0z"/>
    </defs>
    <g fill="none" fill-rule="evenodd">
        <path d="M18.154 21H5.846c-1.274 0-2.307-1.007-2.307-2.25v-7.5a.76.76 0 0 1 .769-.75.76.76 0 0 1 .769.75v7.5c0 .414.344.75.769.75h12.308a.76.76 0 0 0 .769-.75v-7.5a.76.76 0 0 1 .769-.75.76.76 0 0 1 .77.75v7.5c0 1.243-1.034 2.25-2.308 2.25" fill="#3E4745"/>
        <path d="M8.154 19.5h2.308v-3.75a.76.76 0 0 0-.77-.75h-.77a.76.76 0 0 0-.768.75v3.75zM11.23 21H7.385a.76.76 0 0 1-.77-.75v-4.5c0-1.243 1.034-2.25 2.308-2.25h.769c1.275 0 2.308 1.007 2.308 2.25v4.5a.76.76 0 0 1-.77.75z" fill="#3E4745"/>
        <g transform="translate(2 3)">
            <mask id="7f7tovagdb" fill="#fff">
                <use xlink:href="#wdr0ghv87a"/>
            </mask>
            <path d="M16.923 9c-1.699 0-3.077-1.343-3.077-3a.76.76 0 0 1 .769-.75.76.76 0 0 1 .77.75c0 .828.688 1.5 1.538 1.5.85 0 1.538-.672 1.538-1.5v-.57L16.446 1.5H3.554L1.538 5.43V6c0 .828.689 1.5 1.539 1.5S4.615 6.828 4.615 6a.76.76 0 0 1 .77-.75.76.76 0 0 1 .769.75c0 1.657-1.378 3-3.077 3C1.377 9 0 7.657 0 6v-.75a.735.735 0 0 1 .085-.337l2.307-4.5A.772.772 0 0 1 3.077 0h13.846c.29.001.554.16.685.413l2.307 4.5c.055.104.084.22.085.337V6c0 1.657-1.378 3-3.077 3" fill="#3E4745" mask="url(#7f7tovagdb)"/>
        </g>
        <path d="M9.692 12c-1.699 0-3.077-1.343-3.077-3a.76.76 0 0 1 .77-.75.76.76 0 0 1 .77.75c0 .828.687 1.5 1.537 1.5.85 0 1.538-.672 1.538-1.5a.76.76 0 0 1 .77-.75.76.76 0 0 1 .77.75c0 1.657-1.379 3-3.078 3" fill="#3E4745"/>
        <path d="M14.308 12c-1.7 0-3.077-1.343-3.077-3A.76.76 0 0 1 12 8.25a.76.76 0 0 1 .77.75c0 .828.688 1.5 1.538 1.5.85 0 1.538-.672 1.538-1.5a.76.76 0 0 1 .77-.75.76.76 0 0 1 .769.75c0 1.657-1.378 3-3.077 3M16.615 15.75h-2.308a.76.76 0 0 1-.769-.75.76.76 0 0 1 .77-.75h2.307a.76.76 0 0 1 .77.75.76.76 0 0 1-.77.75" fill="#3E4745"/>
    </g>
</svg>
