<?xml version="1.0" encoding="utf-8"?>
<!-- Generator: Adobe Illustrator 24.2.1, SVG Export Plug-In . SVG Version: 6.00 Build 0)  -->
<svg version="1.1" id="Layer_1" xmlns="http://www.w3.org/2000/svg" xmlns:xlink="http://www.w3.org/1999/xlink" x="0px" y="0px"
	 viewBox="0 0 24 24" style="enable-background:new 0 0 24 24;" xml:space="preserve">
<style type="text/css">
	.st0{filter:url(#Adobe_OpacityMaskFilter);}
	.st1{fill-rule:evenodd;clip-rule:evenodd;fill:#FFFFFF;}
	.st2{mask:url(#f7gqte18yb_1_);fill-rule:evenodd;clip-rule:evenodd;fill:#00A9B7;}
</style>
<g transform="translate(2 2)">
	<defs>
		<filter id="Adobe_OpacityMaskFilter" filterUnits="userSpaceOnUse" x="0" y="0" width="20" height="20">
			<feColorMatrix  type="matrix" values="1 0 0 0 0  0 1 0 0 0  0 0 1 0 0  0 0 0 1 0"/>
		</filter>
	</defs>
	<mask maskUnits="userSpaceOnUse" x="0" y="0" width="20" height="20" id="f7gqte18yb_1_">
		<g class="st0">
			<path id="gdfsw4uhpa_1_" class="st1" d="M0,0h20v20H0V0z"/>
		</g>
	</mask>
	<path class="st2" d="M12,6.5c0.1,0.1,0.1,0.4,0,0.5l-0.5,0.5c-0.1,0.1-0.4,0.1-0.5,0L10.5,7c-0.1-0.1-0.2-0.4,0-0.5c0,0,0,0,0,0
		L11,6.1c0.1-0.1,0.4-0.1,0.5,0c0,0,0,0,0,0L12,6.5L12,6.5z M14,8.5c0.1,0.1,0.1,0.4,0,0.5l-0.5,0.5c-0.1,0.1-0.4,0.1-0.5,0L12.5,9
		c-0.1-0.1-0.1-0.4,0-0.5L13,8c0.1-0.1,0.4-0.1,0.5,0L14,8.5L14,8.5z M15.8,10.2l-0.6-0.6l-1,1l0.6,0.6l-7,7l-0.8-0.8
		C7.9,16,7.4,14,5.9,13c-1-0.7-2.4-0.7-3.4,0l-0.8-0.9l7-7l0.5,0.6l1-1L9.7,4.1l2.5-2.5L13,2.5c-1,1.5-0.5,3.5,1,4.4
		c1,0.7,2.4,0.7,3.4,0l0.8,0.8C18.3,7.8,15.8,10.2,15.8,10.2z M19.8,7.3L18,5.5c-0.3-0.3-0.7-0.3-1,0c0,0,0,0,0,0
		c-0.7,0.7-1.8,0.7-2.5,0c0,0,0,0,0,0c-0.7-0.7-0.7-1.8,0-2.5c0.3-0.3,0.3-0.7,0-1l-1.8-1.8c-0.3-0.3-0.7-0.3-1,0L0.2,11.7
		c-0.3,0.3-0.3,0.7,0,1c0,0,0,0,0,0L2,14.5c0.3,0.3,0.7,0.3,1,0c0,0,0,0,0,0c0.7-0.7,1.8-0.7,2.6,0c0,0,0,0,0,0
		c0.7,0.7,0.7,1.8,0,2.6c-0.3,0.3-0.3,0.7,0,1l1.8,1.8c0.3,0.3,0.7,0.3,1,0c0,0,0,0,0,0c0,0,0,0,0,0L19.8,8.3
		C20.1,8,20.1,7.6,19.8,7.3L19.8,7.3L19.8,7.3z"/>
</g>
</svg>
