<svg width="24" height="24" viewBox="0 0 24 24" xmlns="http://www.w3.org/2000/svg" xmlns:xlink="http://www.w3.org/1999/xlink">
    <defs>
        <path id="plyu4h7sra" d="M0 0h20v9H0z"/>
    </defs>
    <g fill="none" fill-rule="evenodd">
        <path d="M18.153 21H5.845c-1.274 0-2.307-1.007-2.307-2.25v-7.5a.76.76 0 0 1 .77-.75.76.76 0 0 1 .768.75v7.5c0 .414.344.75.77.75h12.307a.76.76 0 0 0 .77-.75v-7.5a.76.76 0 0 1 .768-.75.76.76 0 0 1 .77.75v7.5c0 1.243-1.033 2.25-2.308 2.25" fill="#00A9B7"/>
        <path d="M11.23 21H7.384a.76.76 0 0 1-.769-.75v-4.5c0-1.243 1.033-2.25 2.307-2.25h.77c1.274 0 2.307 1.007 2.307 2.25v4.5a.76.76 0 0 1-.769.75" fill="#00A9B7"/>
        <g transform="translate(2 3)">
            <mask id="sk1rqliz6b" fill="#fff">
                <use xlink:href="#plyu4h7sra"/>
            </mask>
            <path d="m19.915 4.912-2.308-4.5A.772.772 0 0 0 16.923 0H3.076a.772.772 0 0 0-.684.412l-2.308 4.5A.722.722 0 0 0 0 5.25V6c0 1.657 1.377 3 3.076 3 .925 0 1.744-.405 2.308-1.035a3.09 3.09 0 0 0 4.616 0 3.089 3.089 0 0 0 4.615 0A3.089 3.089 0 0 0 16.923 9C18.622 9 20 7.656 20 6v-.75a.735.735 0 0 0-.085-.337" fill="#00A9B7" mask="url(#sk1rqliz6b)"/>
        </g>
        <path d="M16.615 15.75h-2.308a.76.76 0 0 1-.769-.75.76.76 0 0 1 .769-.75h2.308a.76.76 0 0 1 .769.75.76.76 0 0 1-.769.75" fill="#00A9B7"/>
    </g>
</svg>
