<svg width="24" height="24" viewBox="0 0 24 24" xmlns="http://www.w3.org/2000/svg" xmlns:xlink="http://www.w3.org/1999/xlink">
    <defs>
        <path id="gdfsw4uhpa" d="M0 0h20v20H0z"/>
    </defs>
    <g transform="translate(2 2)" fill="none" fill-rule="evenodd">
        <mask id="f7gqte18yb" fill="#fff">
            <use xlink:href="#gdfsw4uhpa"/>
        </mask>
        <path d="M11.976 6.546a.36.36 0 0 1 0 .5l-.5.5a.356.356 0 0 1-.5 0l-.492-.5a.352.352 0 0 1-.021-.5l.492-.493a.352.352 0 0 1 .5 0l.52.493zm2.006 1.959a.353.353 0 0 1 0 .493l-.5.507a.353.353 0 0 1-.493 0l-.506-.507a.353.353 0 0 1 0-.493l.506-.501a.353.353 0 0 1 .493 0l.5.5zm1.816 1.733-.55-.55-1 .994.557.556-7.038 7.046-.823-.824a3.21 3.21 0 0 0-1.006-4.421 3.199 3.199 0 0 0-3.414.003l-.824-.86 7.039-7.045.548.556 1-1-.556-.55 2.477-2.458.83.838a3.197 3.197 0 0 0 4.413 4.418l.838.838-2.491 2.459zM19.78 7.25l-1.766-1.748a.704.704 0 0 0-1 0 1.793 1.793 0 0 1-2.54 0 1.799 1.799 0 0 1 0-2.543.707.707 0 0 0 0-.994L12.7.205a.703.703 0 0 0-.992 0L.208 11.703a.706.706 0 0 0 0 1l1.767 1.769a.702.702 0 0 0 .999 0 1.806 1.806 0 0 1 2.555-.007 1.81 1.81 0 0 1 .007 2.558.704.704 0 0 0 0 .993l1.767 1.776a.703.703 0 0 0 .995.004c0-.002.003-.003.004-.004L19.78 8.272a.706.706 0 0 0 .026-.996l-.026-.025z" fill="#3E4745" mask="url(#f7gqte18yb)"/>
    </g>
</svg>
